<?xml version="1.0" encoding="UTF-8" standalone="no"?>
<!-- Created with Inkscape (http://www.inkscape.org/) -->

<svg
   width="240.82401"
   height="70.774002"
   viewBox="0 0 63.718016 18.725621"
   version="1.1"
   id="svg5"
   inkscape:version="1.2.1 (9c6d41e410, 2022-07-14)"
   sodipodi:docname="menggambar.svg"
   xmlns:inkscape="http://www.inkscape.org/namespaces/inkscape"
   xmlns:sodipodi="http://sodipodi.sourceforge.net/DTD/sodipodi-0.dtd"
   xmlns="http://www.w3.org/2000/svg"
   xmlns:svg="http://www.w3.org/2000/svg">
  <sodipodi:namedview
     id="namedview7"
     pagecolor="#ffffff"
     bordercolor="#000000"
     borderopacity="0.25"
     inkscape:showpageshadow="2"
     inkscape:pageopacity="0.0"
     inkscape:pagecheckerboard="0"
     inkscape:deskcolor="#d1d1d1"
     inkscape:document-units="mm"
     showgrid="false"
     inkscape:zoom="1.6819304"
     inkscape:cx="118.61371"
     inkscape:cy="117.12732"
     inkscape:window-width="1280"
     inkscape:window-height="1001"
     inkscape:window-x="-8"
     inkscape:window-y="-8"
     inkscape:window-maximized="1"
     inkscape:current-layer="layer1" />
  <defs
     id="defs2">
    <clipPath
       id="clip0_1_42">
      <rect
         width="81"
         height="54"
         fill="#ffffff"
         id="rect438"
         x="0"
         y="0" />
    </clipPath>
  </defs>
  <g
     inkscape:label="Lapis 1"
     inkscape:groupmode="layer"
     id="layer1">
    <g
       id="g862"
       transform="matrix(1.3106309,0,0,1.3106309,-132.90937,-187.42413)">
      <g
         clip-path="url(#clip0_1_42)"
         id="g436"
         transform="matrix(0.26458333,0,0,0.26458333,101.40874,143.00298)">
        <path
           d="m 75.9375,1.6875 c 0,0.93198 0.7555,1.6875 1.6875,1.6875 h 1.6875 C 80.2445,3.375 81,2.61948 81,1.6875 81,0.75552 80.2445,0 79.3125,0 H 77.625 c -0.932,0 -1.6875,0.75552 -1.6875,1.6875 z"
           fill="#425f57"
           id="path432" />
        <path
           d="m 27,54 h 8.1976 L 32.8111,51.6135 C 32.1782,50.9806 31.3197,50.625 30.4247,50.625 H 27 C 13.9523,50.625 3.375,40.0478 3.375,27 3.375,13.9523 13.9523,3.37501 27,3.375 H 54 C 67.0478,3.375 77.625,13.9523 77.625,27 77.625,40.0478 67.0478,50.625 54,50.625 H 43.8998 c -1.3427,0 -2.6303,-0.5334 -3.5798,-1.4827 l -2.7958,-2.796 C 35.9419,44.764 33.7956,43.875 31.5579,43.875 H 27 C 17.6801,43.875 10.125,36.3199 10.125,27 10.125,17.6801 17.6801,10.125 27,10.125 h 27 c 9.3199,0 16.875,7.5551 16.875,16.875 0,9.3199 -7.5551,16.875 -16.875,16.875 h -6.4853 c -1.3427,0 -2.6303,-0.5334 -3.5798,-1.4827 L 41.139,39.5963 C 39.5566,38.014 37.4105,37.125 35.1728,37.125 H 27 C 21.4082,37.125 16.875,32.5918 16.875,27 16.875,21.4082 21.4082,16.875 27,16.875 h 27 c 5.5918,0 10.125,4.5332 10.125,10.125 0,5.5237 -4.4233,10.0143 -9.9209,10.123 l -0.0011,0.002 h -2.4695 c -1.3427,0 -2.6304,-0.5334 -3.5798,-1.4827 l -2.796,-2.796 C 44.0594,31.5479 42.3815,30.7164 40.5848,30.4598 L 40.5,30.375 H 27 c -1.8639,0 -3.375,-1.5111 -3.375,-3.375 0,-1.8639 1.5111,-3.375 3.375,-3.375 h 27 c 1.8639,0 3.375,1.5111 3.375,3.375 0,1.8639 -1.5111,3.375 -3.375,3.375 h -6.75 l 2.3865,2.3865 c 0.6329,0.6329 1.4914,0.9885 2.3864,0.9885 H 54 c 3.7279,0 6.75,-3.0221 6.75,-6.75 0,-3.7279 -3.0221,-6.75 -6.75,-6.75 H 27 c -3.7279,0 -6.75,3.0221 -6.75,6.75 0,3.7279 3.0221,6.75 6.75,6.75 h 12.3915 c 1.3427,0 2.6304,0.5334 3.5798,1.4827 l 2.796,2.796 C 47.3496,39.611 49.4957,40.5 51.7335,40.5 h 3.1103 V 40.4741 C 61.9065,40.0386 67.5,34.1724 67.5,27 67.5,19.5442 61.4558,13.5 54,13.5 H 27 c -7.4558,0 -13.5,6.0442 -13.5,13.5 0,7.4559 6.0442,13.5 13.5,13.5 h 8.1728 c 1.3427,0 2.6303,0.5334 3.5798,1.4827 l 2.7959,2.796 C 43.1309,46.361 45.277,47.25 47.5147,47.25 H 54 C 65.1838,47.25 74.25,38.1838 74.25,27 74.25,15.8162 65.1838,6.75 54,6.75 H 27 C 15.8162,6.75 6.75,15.8162 6.75,27 6.75,38.1838 15.8162,47.25 27,47.25 h 4.5579 c 1.3427,0 2.6303,0.5334 3.5798,1.4827 l 2.796,2.796 C 39.516,53.111 41.6621,54 43.8998,54 H 54 C 68.9117,54 81,41.9117 81,27 81,12.0883 68.9117,-1.30362e-6 54,0 L 27,5.57906e-6 C 12.0883,6.88269e-6 -1.30362e-6,12.0883 0,27 1.30362e-6,41.9117 12.0883,54 27,54 Z"
           fill="#425f57"
           id="path434" />
      </g>
      <g
         id="g854"
         transform="translate(0,0.80723491)">
        <path
           d="m 128.61643,152.5137 h -0.44355 c -0.0331,-0.16516 -0.0928,-0.31774 -0.17934,-0.45773 -0.085,-0.14157 -0.19188,-0.26504 -0.32089,-0.37044 -0.12898,-0.10539 -0.27526,-0.18718 -0.43884,-0.24538 -0.16359,-0.0582 -0.34055,-0.0873 -0.53088,-0.0873 -0.30516,0 -0.58358,0.0794 -0.83525,0.23831 -0.25011,0.15887 -0.45066,0.39245 -0.60166,0.70075 -0.14943,0.30673 -0.22415,0.68267 -0.22415,1.12782 0,0.44829 0.0747,0.82581 0.22415,1.13254 0.151,0.30673 0.35155,0.53953 0.60166,0.69841 0.25167,0.15728 0.53009,0.23592 0.83525,0.23592 0.19033,0 0.36729,-0.0291 0.53088,-0.0873 0.16358,-0.0582 0.30986,-0.1392 0.43884,-0.24301 0.12901,-0.1054 0.23596,-0.2289 0.32089,-0.37045 0.0865,-0.14158 0.14629,-0.29495 0.17934,-0.46008 h 0.44355 c -0.0393,0.22178 -0.11325,0.42863 -0.22177,0.62052 -0.10698,0.19032 -0.24382,0.35707 -0.41056,0.50022 -0.16514,0.14312 -0.35547,0.25481 -0.57098,0.33503 -0.2155,0.0803 -0.45223,0.12032 -0.71019,0.12032 -0.40582,0 -0.76603,-0.10139 -1.08063,-0.30436 -0.3146,-0.20447 -0.56155,-0.49234 -0.74087,-0.86356 -0.17774,-0.37122 -0.26662,-0.80928 -0.26662,-1.31421 0,-0.50493 0.0888,-0.943 0.26662,-1.31422 0.17932,-0.37122 0.42627,-0.65829 0.74087,-0.86121 0.3146,-0.20448 0.67481,-0.30672 1.08063,-0.30672 0.25796,0 0.49469,0.0401 0.71019,0.12033 0.21551,0.0787 0.40584,0.19033 0.57098,0.33505 0.16674,0.14313 0.30358,0.30987 0.41056,0.5002 0.10852,0.19032 0.18246,0.39717 0.22177,0.62053 z m 0.9491,3.32211 v -3.62412 h 0.40819 v 0.55684 h 0.0307 c 0.0724,-0.18247 0.1982,-0.32955 0.37753,-0.44122 0.18089,-0.11326 0.38537,-0.16989 0.61346,-0.16989 0.0346,0 0.0731,7.9e-4 0.11561,0.002 0.0425,0.002 0.0778,0.003 0.10617,0.005 v 0.42705 c -0.0188,-0.003 -0.0519,-0.008 -0.0991,-0.0141 -0.0472,-0.006 -0.0984,-0.009 -0.15337,-0.009 -0.18875,0 -0.35707,0.0401 -0.50493,0.12034 -0.14629,0.0787 -0.2619,0.18796 -0.34683,0.32796 -0.085,0.13999 -0.12743,0.29965 -0.12743,0.47897 v 2.34058 z m 3.72323,0.0755 c -0.33819,0 -0.63076,-0.0787 -0.87772,-0.23593 -0.24695,-0.15887 -0.43808,-0.3783 -0.57334,-0.6583 -0.13372,-0.28155 -0.20055,-0.60559 -0.20055,-0.97211 0,-0.3649 0.0669,-0.68895 0.20055,-0.97207 0.13526,-0.28471 0.32166,-0.50729 0.55919,-0.66773 0.23908,-0.16202 0.51514,-0.24302 0.82817,-0.24302 0.19662,0 0.38614,0.0362 0.56861,0.10853 0.18246,0.0707 0.34606,0.18011 0.49079,0.32797 0.14628,0.14628 0.26189,0.33111 0.34682,0.55447 0.085,0.22179 0.12741,0.48448 0.12741,0.78803 v 0.20764 h -2.83133 v -0.37041 h 2.40192 c 0,-0.23281 -0.0472,-0.44202 -0.14158,-0.62763 -0.0928,-0.18717 -0.22259,-0.33503 -0.3893,-0.44357 -0.16516,-0.10853 -0.3563,-0.1628 -0.57334,-0.1628 -0.22967,0 -0.43179,0.0613 -0.60639,0.18403 -0.17461,0.12269 -0.31145,0.28471 -0.41054,0.48606 -0.0975,0.20133 -0.14708,0.42155 -0.14866,0.66063 v 0.22181 c 0,0.28784 0.0496,0.53951 0.14866,0.75501 0.10066,0.21391 0.24302,0.37988 0.42706,0.49784 0.18402,0.118 0.4019,0.17696 0.65357,0.17696 0.17146,0 0.32167,-0.0268 0.45065,-0.0803 0.13056,-0.0535 0.23988,-0.12508 0.32797,-0.21471 0.0897,-0.0913 0.15728,-0.19114 0.2029,-0.29965 l 0.39877,0.12975 c -0.055,0.1526 -0.14552,0.29337 -0.27137,0.42235 -0.12424,0.12898 -0.27997,0.23279 -0.46717,0.31145 -0.1856,0.0771 -0.39951,0.11561 -0.64175,0.11561 z m 3.40763,0.007 c -0.21865,0 -0.4184,-0.0425 -0.59931,-0.12741 -0.18089,-0.0865 -0.32482,-0.21078 -0.43176,-0.37279 -0.10697,-0.16359 -0.16046,-0.36178 -0.16046,-0.59458 0,-0.17934 0.0338,-0.33032 0.10149,-0.45302 0.0676,-0.1227 0.16359,-0.22336 0.28787,-0.30201 0.12427,-0.0787 0.27132,-0.14078 0.4412,-0.1864 0.1699,-0.0456 0.35707,-0.081 0.56154,-0.10617 0.20293,-0.0252 0.37438,-0.0472 0.51438,-0.0661 0.14158,-0.0188 0.24932,-0.0488 0.32325,-0.0897 0.074,-0.0409 0.1109,-0.10695 0.1109,-0.19819 v -0.085 c 0,-0.24694 -0.074,-0.44121 -0.22182,-0.58277 -0.14627,-0.14315 -0.35704,-0.21472 -0.6323,-0.21472 -0.26112,0 -0.47426,0.0574 -0.63942,0.17225 -0.16358,0.11482 -0.27842,0.2501 -0.34447,0.40582 l -0.39877,-0.14393 c 0.0818,-0.19819 0.19506,-0.35627 0.33976,-0.47425 0.14471,-0.11954 0.30675,-0.20527 0.48606,-0.25718 0.17931,-0.0535 0.361,-0.0803 0.54502,-0.0803 0.13842,0 0.28235,0.0181 0.43179,0.0543 0.15102,0.0362 0.29099,0.0991 0.41997,0.18875 0.12901,0.0881 0.2336,0.21157 0.31383,0.37044 0.0803,0.15729 0.12031,0.35707 0.12031,0.59931 v 2.4609 h -0.41996 v -0.57334 h -0.026 c -0.0503,0.10695 -0.12505,0.21077 -0.22414,0.31144 -0.0991,0.10066 -0.22335,0.18325 -0.37279,0.24776 -0.14944,0.0644 -0.32482,0.0968 -0.52617,0.0968 z m 0.0566,-0.38459 c 0.22336,0 0.41682,-0.0496 0.58043,-0.14864 0.16359,-0.0991 0.28941,-0.23045 0.3775,-0.39403 0.0897,-0.16516 0.13449,-0.34686 0.13449,-0.54505 v -0.52378 c -0.0315,0.0298 -0.0841,0.0566 -0.15808,0.0802 -0.0724,0.0237 -0.15652,0.0449 -0.25248,0.0637 -0.0944,0.0173 -0.18874,0.0322 -0.28312,0.0448 -0.0944,0.0126 -0.17931,0.0235 -0.25484,0.0331 -0.20447,0.0251 -0.37908,0.0645 -0.52378,0.11797 -0.14471,0.0535 -0.25561,0.12743 -0.33269,0.22181 -0.0771,0.0928 -0.1156,0.21233 -0.1156,0.35862 0,0.22022 0.0787,0.3909 0.23595,0.51202 0.15728,0.11954 0.35469,0.17931 0.59222,0.17931 z m 4.05708,-3.32212 v 0.36571 h -1.7295 v -0.36571 z m -1.18918,-0.86828 h 0.42235 v 3.54627 c 0,0.15098 0.0259,0.26975 0.0779,0.35626 0.0519,0.085 0.11953,0.14552 0.20289,0.1817 0.0834,0.0346 0.17225,0.0519 0.26663,0.0519 0.055,0 0.10222,-0.003 0.14155,-0.009 0.0393,-0.008 0.074,-0.0157 0.10379,-0.0237 l 0.0897,0.37987 c -0.0409,0.0157 -0.0912,0.0299 -0.15101,0.0425 -0.0598,0.0141 -0.13369,0.0212 -0.22179,0.0212 -0.15414,0 -0.30277,-0.0338 -0.44593,-0.1015 -0.14155,-0.0676 -0.25797,-0.16829 -0.34919,-0.30201 -0.0912,-0.13368 -0.13687,-0.29965 -0.13687,-0.49785 z m 2.14769,4.49241 v -3.62413 h 0.42234 v 3.62413 z m 0.21472,-4.24702 c -0.0865,0 -0.16043,-0.0291 -0.22178,-0.0873 -0.0613,-0.0597 -0.0921,-0.13134 -0.0921,-0.21472 0,-0.0834 0.0307,-0.15414 0.0921,-0.21234 0.0613,-0.0597 0.13526,-0.0897 0.22178,-0.0897 0.0865,0 0.16046,0.0299 0.2218,0.0897 0.0613,0.0582 0.092,0.12898 0.092,0.21234 0,0.0834 -0.0306,0.15495 -0.092,0.21472 -0.0613,0.0582 -0.13529,0.0873 -0.2218,0.0873 z m 4.12373,0.62289 -1.32364,3.62413 h -0.44832 l -1.32363,-3.62413 h 0.45537 l 1.0759,3.06966 h 0.0331 l 1.07589,-3.06966 z m 2.15713,3.69962 c -0.33818,0 -0.63076,-0.0787 -0.87769,-0.23593 -0.24698,-0.15887 -0.43808,-0.3783 -0.57338,-0.6583 -0.13369,-0.28155 -0.20055,-0.60559 -0.20055,-0.97211 0,-0.3649 0.0669,-0.68895 0.20055,-0.97207 0.1353,-0.28471 0.32169,-0.50729 0.5592,-0.66773 0.23911,-0.16202 0.51515,-0.24302 0.82817,-0.24302 0.19662,0 0.38617,0.0362 0.56863,0.10853 0.18247,0.0707 0.34606,0.18011 0.49076,0.32797 0.14629,0.14628 0.2619,0.33111 0.34683,0.55447 0.085,0.22179 0.12743,0.48448 0.12743,0.78803 v 0.20764 h -2.83134 v -0.37041 h 2.40191 c 0,-0.23281 -0.0472,-0.44202 -0.14155,-0.62763 -0.0928,-0.18717 -0.22259,-0.33503 -0.38933,-0.44357 -0.16516,-0.10853 -0.35627,-0.1628 -0.57334,-0.1628 -0.22964,0 -0.43179,0.0613 -0.60637,0.18403 -0.1746,0.12269 -0.31144,0.28471 -0.41055,0.48606 -0.0975,0.20133 -0.14706,0.42155 -0.14864,0.66063 v 0.22181 c 0,0.28784 0.0496,0.53951 0.14864,0.75501 0.10066,0.21391 0.24301,0.37988 0.42705,0.49784 0.18405,0.118 0.4019,0.17696 0.65357,0.17696 0.17145,0 0.32167,-0.0268 0.45068,-0.0803 0.13053,-0.0535 0.23985,-0.12508 0.32794,-0.21471 0.0897,-0.0912 0.15731,-0.19114 0.20293,-0.29965 l 0.39873,0.12975 c -0.055,0.1526 -0.1455,0.29337 -0.27133,0.42236 -0.12427,0.12897 -0.28,0.23278 -0.46717,0.31144 -0.18563,0.0771 -0.39954,0.11561 -0.64178,0.11561 z"
           fill="#425f57"
           id="path182"
           style="stroke-width:0.276842" />
        <path
           d="m 126.95744,149.68795 h -2.45567 v -6.92727 h 2.47596 c 0.69677,0 1.29661,0.13868 1.79948,0.41604 0.50284,0.27511 0.88958,0.67085 1.16017,1.18724 0.27286,0.51639 0.40928,1.13426 0.40928,1.85358 0,0.7216 -0.13642,1.3417 -0.40928,1.86037 -0.27059,0.51863 -0.65958,0.91665 -1.16695,1.19401 -0.50511,0.27736 -1.10945,0.41603 -1.81299,0.41603 z m -0.99107,-1.25489 h 0.93018 c 0.43296,0 0.79714,-0.0767 1.09254,-0.23 0.29766,-0.15561 0.52089,-0.39577 0.66972,-0.72047 0.15107,-0.32697 0.22664,-0.74866 0.22664,-1.26505 0,-0.51186 -0.0756,-0.93017 -0.22664,-1.25488 -0.14883,-0.32472 -0.37095,-0.56375 -0.66633,-0.71708 -0.29541,-0.15334 -0.65958,-0.23001 -1.09255,-0.23001 h -0.93356 z m 6.91966,1.35297 c -0.33147,0 -0.62688,-0.0575 -0.8862,-0.17248 -0.25932,-0.11726 -0.46453,-0.28977 -0.6156,-0.51753 -0.14883,-0.23 -0.22326,-0.51638 -0.22326,-0.85915 0,-0.28863 0.053,-0.53105 0.15899,-0.72723 0.10599,-0.19617 0.2503,-0.35402 0.43296,-0.47353 0.18265,-0.11951 0.39011,-0.20971 0.62236,-0.27062 0.23452,-0.0609 0.48032,-0.10371 0.73739,-0.1285 0.30215,-0.0316 0.5457,-0.0609 0.73059,-0.088 0.18492,-0.0293 0.31909,-0.0722 0.40251,-0.12854 0.0834,-0.0564 0.12518,-0.1398 0.12518,-0.25032 v -0.0203 c 0,-0.21421 -0.0677,-0.37994 -0.20296,-0.49721 -0.13304,-0.11726 -0.32245,-0.17589 -0.56825,-0.17589 -0.25932,0 -0.46567,0.0575 -0.61899,0.17251 -0.15335,0.11274 -0.25482,0.25482 -0.30443,0.42619 l -1.33268,-0.10824 c 0.0676,-0.3157 0.20069,-0.58854 0.39912,-0.81856 0.19844,-0.23226 0.45437,-0.4104 0.76782,-0.53443 0.31571,-0.12627 0.68102,-0.18941 1.09591,-0.18941 0.28866,0 0.56488,0.0338 0.8287,0.10147 0.26609,0.0677 0.50176,0.17251 0.70694,0.31457 0.20746,0.14206 0.37095,0.32471 0.49046,0.54795 0.11951,0.22098 0.17928,0.48596 0.17928,0.79489 v 3.50422 h -1.36652 v -0.72046 h -0.0406 c -0.0834,0.16235 -0.19505,0.30554 -0.33485,0.42958 -0.13981,0.12176 -0.30782,0.21759 -0.50401,0.28749 -0.19616,0.0677 -0.4228,0.10147 -0.67987,0.10147 z m 0.41267,-0.99444 c 0.21196,0 0.39912,-0.0417 0.5615,-0.12514 0.16235,-0.0857 0.28974,-0.20069 0.38221,-0.34502 0.0925,-0.1443 0.13867,-0.30779 0.13867,-0.49046 v -0.55134 c -0.0451,0.0293 -0.1071,0.0564 -0.18603,0.0812 -0.0767,0.0226 -0.16348,0.044 -0.26045,0.0643 -0.097,0.0181 -0.19394,0.035 -0.29088,0.0508 -0.097,0.0135 -0.18492,0.0259 -0.26385,0.0372 -0.16912,0.0248 -0.31681,0.0643 -0.44309,0.1184 -0.12629,0.0541 -0.22437,0.1274 -0.29427,0.21985 -0.0699,0.0902 -0.10486,0.20296 -0.10486,0.33824 0,0.19619 0.071,0.34615 0.2131,0.44987 0.1443,0.10149 0.32697,0.15221 0.54795,0.15221 z m 3.63106,0.89636 v -5.19545 h 1.37329 v 0.91663 h 0.0609 c 0.10825,-0.30441 0.28864,-0.54456 0.54118,-0.72045 0.25257,-0.17589 0.55473,-0.26383 0.90652,-0.26383 0.35629,0 0.65958,0.0891 0.90987,0.26721 0.2503,0.17589 0.41717,0.41492 0.5006,0.71707 h 0.0541 c 0.10597,-0.29765 0.29766,-0.53554 0.57502,-0.71369 0.27961,-0.1804 0.60997,-0.27059 0.99105,-0.27059 0.48482,0 0.87831,0.15446 1.18049,0.46339 0.3044,0.30669 0.45662,0.7419 0.45662,1.30562 v 3.49409 h -1.43754 V 146.478 c 0,-0.28864 -0.0767,-0.50512 -0.23002,-0.64942 -0.15333,-0.14433 -0.345,-0.21648 -0.575,-0.21648 -0.26159,0 -0.46566,0.0834 -0.61224,0.25029 -0.14656,0.16463 -0.21985,0.38222 -0.21985,0.65281 v 3.17275 h -1.39697 v -3.24041 c 0,-0.25479 -0.0733,-0.45775 -0.21984,-0.60883 -0.14433,-0.15107 -0.33488,-0.22661 -0.57163,-0.22661 -0.16013,0 -0.30443,0.0406 -0.43297,0.12176 -0.12628,0.0789 -0.22661,0.19055 -0.30104,0.33485 -0.0744,0.14209 -0.11163,0.30893 -0.11163,0.50062 v 3.11862 z m 10.16937,0.0981 c -0.3315,0 -0.62688,-0.0575 -0.8862,-0.17248 -0.25934,-0.11726 -0.46453,-0.28977 -0.61563,-0.51753 -0.14883,-0.23 -0.22323,-0.51638 -0.22323,-0.85915 0,-0.28863 0.053,-0.53105 0.15896,-0.72723 0.10599,-0.19617 0.25032,-0.35402 0.43297,-0.47353 0.18266,-0.11951 0.3901,-0.20971 0.62238,-0.27062 0.2345,-0.0609 0.48029,-0.10371 0.73736,-0.1285 0.30218,-0.0316 0.54571,-0.0609 0.73062,-0.088 0.18489,-0.0293 0.31906,-0.0722 0.40251,-0.12854 0.0834,-0.0564 0.12515,-0.1398 0.12515,-0.25032 v -0.0203 c 0,-0.21421 -0.0676,-0.37994 -0.20293,-0.49721 -0.13306,-0.11726 -0.32248,-0.17589 -0.56828,-0.17589 -0.25931,0 -0.46564,0.0575 -0.61899,0.17251 -0.15332,0.11274 -0.25479,0.25482 -0.3044,0.42619 l -1.33271,-0.10824 c 0.0677,-0.3157 0.20071,-0.58854 0.39915,-0.81856 0.19844,-0.23226 0.45437,-0.4104 0.7678,-0.53443 0.3157,-0.12627 0.68101,-0.18941 1.09593,-0.18941 0.28863,0 0.56486,0.0338 0.8287,0.10147 0.26609,0.0677 0.50173,0.17251 0.70694,0.31457 0.20746,0.14206 0.37094,0.32471 0.49046,0.54795 0.11951,0.22098 0.17925,0.48596 0.17925,0.79489 v 3.50422 h -1.36649 v -0.72046 h -0.0406 c -0.0834,0.16235 -0.19506,0.30554 -0.33486,0.42958 -0.13981,0.12176 -0.30779,0.21759 -0.50398,0.28749 -0.19619,0.0677 -0.4228,0.10147 -0.67987,0.10147 z m 0.41264,-0.99444 c 0.21199,0 0.39915,-0.0417 0.5615,-0.12514 0.16235,-0.0857 0.28977,-0.20069 0.38222,-0.34502 0.0924,-0.1443 0.13869,-0.30779 0.13869,-0.49046 v -0.55134 c -0.0451,0.0293 -0.10713,0.0564 -0.18605,0.0812 -0.0767,0.0226 -0.16349,0.044 -0.26043,0.0643 -0.097,0.0181 -0.19394,0.035 -0.29091,0.0508 -0.097,0.0135 -0.18489,0.0259 -0.26382,0.0372 -0.16912,0.0248 -0.31684,0.0643 -0.44312,0.1184 -0.12626,0.0541 -0.22437,0.1274 -0.29427,0.21985 -0.0699,0.0902 -0.10486,0.20296 -0.10486,0.33824 0,0.19619 0.071,0.34615 0.2131,0.44987 0.14433,0.10149 0.32697,0.15221 0.54795,0.15221 z"
           fill="#425f57"
           id="path307"
           style="stroke-width:0.264583" />
      </g>
    </g>
  </g>
</svg>
